/* XPM */
static char *a0031f74eaae4a56b3a7e7ba7f38ef8elIe5yvFwKGiyTEQt[] = {
/* columns rows colors chars-per-pixel */
"97 64 245 2 ",
"   c #040103",
".  c #0B0202",
"X  c #03020D",
"o  c #0B040C",
"O  c #0C090A",
"+  c #1C0B01",
"@  c #130B0D",
"#  c #160706",
"$  c #19110A",
"%  c #040313",
"&  c #090614",
"*  c #040816",
"=  c #0B0914",
"-  c #04041A",
";  c #0A061B",
":  c #06091A",
">  c #0B0B1A",
",  c #120C13",
"<  c #120D1B",
"1  c #190C12",
"2  c #18141A",
"3  c #0B131F",
"4  c #24140C",
"5  c #2A1B0D",
"6  c #271408",
"7  c #2C1B13",
"8  c #2D1D1A",
"9  c #241815",
"0  c #311E16",
"q  c #291409",
"w  c #3B2609",
"e  c #2D2216",
"r  c #2D231B",
"t  c #272119",
"y  c #332315",
"u  c #33231C",
"i  c #382A1A",
"p  c #3B321D",
"a  c #0B0922",
"s  c #1C1C2B",
"d  c #191723",
"f  c #13142A",
"g  c #241D26",
"h  c #1D222B",
"j  c #1A2337",
"k  c #282329",
"l  c #342C2C",
"z  c #352925",
"x  c #3B3228",
"c  c #242533",
"v  c #2A2937",
"b  c #352D35",
"n  c #2C313C",
"m  c #383438",
"M  c #422D18",
"N  c #483516",
"B  c #4E3513",
"V  c #432E25",
"C  c #42332B",
"Z  c #483728",
"A  c #573C2B",
"S  c #463A36",
"D  c #543E34",
"F  c #673D27",
"G  c #58452A",
"H  c #4D423A",
"J  c #4C4337",
"K  c #5C4234",
"L  c #5C4B3B",
"P  c #554538",
"I  c #49412C",
"U  c #654939",
"Y  c #665539",
"T  c #73563B",
"R  c #6D4C2D",
"E  c #78643B",
"W  c #59411B",
"Q  c #192843",
"!  c #162B4D",
"~  c #222C45",
"^  c #2B344C",
"/  c #283547",
"(  c #373948",
")  c #2B3650",
"_  c #2B3B56",
"`  c #343C54",
"'  c #453D44",
"]  c #384359",
"[  c #3E404F",
"{  c #374966",
"}  c #375073",
"|  c #4A4648",
" . c #574A47",
".. c #5D5344",
"X. c #494954",
"o. c #565658",
"O. c #4B5355",
"+. c #685645",
"@. c #725A45",
"#. c #785B49",
"$. c #665A55",
"%. c #624E48",
"&. c #7A6449",
"*. c #6A6457",
"=. c #766757",
"-. c #746A51",
";. c #475469",
":. c #4E586C",
">. c #5B6476",
",. c #676769",
"<. c #756664",
"1. c #7D7267",
"2. c #6F7177",
"3. c #615D6C",
"4. c #81513A",
"5. c #87673E",
"6. c #8A5B46",
"7. c #945E49",
"8. c #84674C",
"9. c #876A57",
"0. c #9A6C57",
"q. c #89765A",
"w. c #977758",
"e. c #91724C",
"r. c #A47557",
"t. c #897865",
"y. c #977967",
"u. c #867975",
"i. c #917D74",
"p. c #A87B67",
"a. c #7D8375",
"s. c #94815C",
"d. c #948155",
"f. c #AA8858",
"g. c #B58E57",
"h. c #B99659",
"j. c #B08B4C",
"k. c #8C8168",
"l. c #998769",
"z. c #978877",
"x. c #8E8875",
"c. c #A6886A",
"v. c #A89268",
"b. c #B79867",
"n. c #AA8974",
"m. c #B48B76",
"M. c #A99779",
"N. c #B5967A",
"B. c #B4846A",
"V. c #BAA47A",
"C. c #C69C58",
"Z. c #C5954A",
"A. c #CAA25C",
"S. c #D2A45D",
"D. c #C59D66",
"F. c #C1927A",
"G. c #C9A266",
"H. c #C3A273",
"J. c #CCAB78",
"K. c #D2A96D",
"L. c #B98937",
"P. c #3E5D85",
"I. c #597598",
"U. c #506E92",
"Y. c #6F788A",
"T. c #587DA5",
"R. c #4D79A0",
"E. c #455D83",
"W. c #867D82",
"Q. c #7B8790",
"!. c #6987A7",
"~. c #6C93BA",
"^. c #7697BB",
"/. c #6F8DAF",
"(. c #5E82A4",
"). c #779BC3",
"_. c #7CA4CA",
"`. c #958A89",
"'. c #8C8E90",
"]. c #A8998A",
"[. c #BB9986",
"{. c #A79A97",
"}. c #B69A91",
"|. c #B9A889",
" X c #B8A596",
".X c #B0B09A",
"XX c #979DA8",
"oX c #8999AF",
"OX c #98A5B1",
"+X c #ABA7A7",
"@X c #A8ABB6",
"#X c #B7B6B6",
"$X c #B3B0AB",
"%X c #9F9E98",
"&X c #C59B88",
"*X c #D49F8D",
"=X c #C7A888",
"-X c #D3AB89",
";X c #C9B389",
":X c #D5B688",
">X c #C9A896",
",X c #D4AC97",
"<X c #C9B899",
"1X c #D8B598",
"2X c #E2B79C",
"3X c #C9B9A7",
"4X c #DAB8A7",
"5X c #D5BCB4",
"6X c #C5B7B0",
"7X c #E6BCA7",
"8X c #E3BDB3",
"9X c #BDC3B1",
"0X c #E6C798",
"qX c #C9C7AC",
"wX c #D7C4A6",
"eX c #D9C7B7",
"rX c #CBCEB6",
"tX c #E7C6A9",
"yX c #E7C7B7",
"uX c #F4C8B9",
"iX c #EAD2B9",
"pX c #F2D5BD",
"aX c #F0D6AB",
"sX c #839DC4",
"dX c #88A5C8",
"fX c #99ACC7",
"gX c #9AB3D3",
"hX c #8BACCE",
"jX c #A7B5C9",
"kX c #A9BAD6",
"lX c #AEB2C2",
"zX c #B1C4D8",
"xX c #B5C5E2",
"cX c #CAC8C6",
"vX c #D7D0CC",
"bX c #E7CDC4",
"nX c #EAD7CA",
"mX c #F4D7C7",
"MX c #E7DAD5",
"NX c #F3DAD5",
"BX c #EBE4D7",
"VX c #F8E9D9",
"CX c #F6E3CC",
"ZX c #FCF6E7",
"AX c #FBF2E5",
/* pixels */
"% X % % X & % & * = = = * = & * ; ; ; = = & = & o & & % % - - % X , , % n OXzXzXkXkXkXxXxXxXkXfXsXsXsXsX).).).).).T.T.I.E.:.U.Q..X.X-.Y 1.q.N M.Y V V 8 O = % X % % % & % % % % % % % % X % % % % ",
"% % X % % % & % & * & * = * = = ; ; ; = = & & & & % % % - - % % o , X 3 /.zXgXzXkXkXkXkXkXkXkXfXfXsXsXsX_.).).).).~./.T.U.E.} ;.2.].].+.I G I z.q.M Z 8 , O X * % % % % % % % % % % % % % % % % % ",
"& X & X X & & X & & & = & & & : ; & & ; & % = = = * * % % % - * & % 3 >.@XzXzXzXkXkXkXxXkXkXgXdXsXsXsXsX_.).~.).~.).)./.U.} ] ) m ..z.a.Y p N k.n.w V 7 1 X % : * % % % % % % % % X % % % % % % % ",
"% % % % % X & * & % % * * > & = & ; ; & & & & % * * X % % - * * - : :.zXfXgXzXgXkXkXxXkXkXgXsXdXsXsX).).).).).~.T.~.).T.T.;.} ' v t ..a.k.L p d.].V M 0 $   3 % % % % % % % % % % % % % % % X % % ",
"% X % X % & & % % & % & & : & = - & & ; & % * * = O * X X % * * : / gXgXxXjXzXgXkXjXkXfXgXgXdXgXdXsX_._.).).~.).^.!./././.U.;.` / k t J *.-.I 1.|.@.p Z k   > X & % % % % % % % % % % % % % % % % ",
"& % % % X % % & & % & & = & & > & ; & % % % O & * % * % % % * : : Y.xXOXzXzXjXzXkXkXjXfXgXgX^.^.dX).)._._.~.~.).^././.!.Y.;.;.` [ [ n h m *.I l.wXq.w L J . % % % % % % % % % % % % % X % % % % % ",
"% % % X % X & & % * * & & * & & & % & = & X % % * O X % % * & * j oXkXjXOX@XjX9XlXjXkXgXkXdXR.T.).~.).)._._.~.~.(./.^.I.{ ) ) ;.] ] [ n m J J ].wXd.p G $.$ X > & % % % % % % X % % % % X % % % % ",
"% X X & % & & % & * % & & % & % & % & % % & & % * X & % & X % % :.zXOXOXOXOXzXOXlXfXjXOXgXdXU.R.R.).).~.)._._.R.} (./.I._ ) ^ ) ] / ] [ [ m I x.wXk.W p =.r   & % - % % % % % % X % % % % % % % % ",
"% % % X % % % & = = = = * & % & = : * & - & % % X & X & & = X & Y.'.%XlXcXcXcXjX@XXXOXgX^.T.R.R.U.R.R.R.U.).dXP.} :.I.U.] j Q ^ { _ / ] [ n t x.qXs.N W @.| o % % % % % % % % % & % % % % % % % % ",
"X % X % % X & & & & * & & & % % * = = & % & & * & * * = X & & 1  .#XvXMXBXMXMXvXcX@XoXOXoX/.(.T.U.P.P.U.U.U.).} ! ! ! _ ) / Q j ! _ ] ! [ n l x.<Xs.N N *...1 @ % % % % % X % % % % % % % % % % % ",
"% % X % % * & & * & * * O * & % * * * X : & % % & X = 3   = = = <.bXNXMXMXnXMXMXMXcX@XXXoXQ.!./.).P.} { } } I.{ Q f ! ! ) ) Q ~ ! ] ] / / n k *.<Xs.B M Y *.8 > % % % % % % % % % % % % % % % % % ",
"o % % X X X % % & & & & % * * % X * * * & % - & %   % , % O X 9 5XmXbXbXnXnXbXbXbXNXvX6XXXQ.2.Y.fXU.! _ { _ _ ;.! Q ) _ ) ` ` _ / / ! _ ] c t ..3Xs.N N Y =.z @ ; % % % % % X % % % % % % % % % % ",
"% X % X X % % & & % O * % X & % X * * * % * % & % X % = = o   $.nXbXbXmXuXyXbXyX5XbXbXeX5X{.,.o.Y.U.^ ~ ^ ] ( ] ] ~ j v ( ] ` ( / j ! ] ) ^ g D qXl.N M L -.z = = & % % % % % % % % - & & % % % % ",
"% % X % % % % X X % % * & & & % % * X * * % : % & > & O o   2 $XbX8XmXmXyXyXiXyX8X8XuX8XyX3X].t.' ' ' g h n [ h ( j v c / X.` ^ n n n ! ~ ( v C 3Xl.B B G =.z O , % X % % % % % % % % % - % % % % ",
"% % % X % X % X % % % * % & X & * X % % * % & & & & = X o X v 5XuX8XbXmXmXpXiXyXuX8X7X7X7X7X,X|.W.' ( ( b = d k k c n c h n m / / / ) ) ~ ^ v g  XM.R N Z 9.C o > & % % % % % % % % % % & % % % % ",
"% % X % X % X % & X % % & % % X % % % % * & & * * X = & % 1 k $X>X>X4X8XmXyX1XtX7X,X7X2X2X2X1X=X].i.' z l b = , , 3 c k 3 h k k ( ^ ) ] ( ^ k 8 ].M.Y B M t.D 1 , % X % % % % % % % % % % % % % % ",
"% % % % & % % % % % - % & % * % % % O X X X X * : : : X % , 9 %.}.}. XyXyXtX,X X&Xm.[.=X>X1X1X>X}.z.+.S C ' g < a g c c g d g g j / _ _ _ ` k $ `.|.E N B l.=.# 1 X & X ; % X % % X % % % % % % % ",
"% % % % % % % % * % & % & % % % % % X X X * X * : * a % & @ 1 %. Xt.9.4XnX5X>Xm.[.B.N.=X>X=X4X<X&Xl.@.D C b b ( s c v v s 1 1 g j Q ^ / ^ ^ k . k.|.8.B M i.t.9 2 & , X = % % % X % % % % % - - % ",
"% % % % % % % % & % - % % - % % % * X X O X * * * * > % o = # <.NXD + ].VX4Xn.y.n.N.>X>X>Xn.m.>XN.y.Y P V 8 z ( b v c g g g d d j / ) ^ ^ n d   k.|.s.G w q.z.u g < < X & o o % % % % % - % % % % ",
"% % % % % % % & % % & % * % % & * % % X % % * X * * : & o @ # `.bXt.U }.mX1Xc.c.n.|.tX4X8.A @.0.n.8.U L ' C z v ' ^ v g s v g 2 c ~ ^ ^ ^ c <   -.<Xl.R w &.i.m g d < o % % % X % % % % % % % % % ",
"% % % % % % & % - & % % - % % * * % X * % X % X % * > * o # z 6X>X<X XyXmX[.y.n.|.>XmXpXw + F A &.T U U %.D x z m ' m s d c c d h j v v v j ,   P qXl.Y w E k. .z d g o & X % = % % % % % % % % % ",
"% % % % % % - % % % % & % * % % % % % % X % * * * : 3 % o # ' MX5X5X>XyXmX[.9.c.,XyXiXiXT G A A T @.#.@.U D S x k m ( k 2 s v c h h j j j d @ . p wXv.-.N Y k.*.g g g , % o % % % % % % - % % - % ",
"% % % % % - & % % & - % % % % * % * X X % X % % % * = & ,   $.NX5XmXbXyX5XN.c.c.,XyX1X,X].y.U #.p.n.p.9.+.D D D z l b v g s c n c c c h f 3 = . p <XM.v.N G k...b g g & % % % % % - % % % % % % % ",
"X % % % % % % & % & % & % & * % * * * X * % % * * * > X 1   <.NXyXtXuXuX4Xp.p.p.2X1X4X1Xm.y.p.m.,X,X}.y.#.K D D H x b b v s g c m b c c f <     I <XV.;Xw I k...S v g o X X % % % % % % % - % % % ",
"% X % % % % % % % % % % & % % % - % % % % % % % % : % O ,   t.MX8X8XmX7X*Xp.p.p.2X2X2X2X7X2X,X,X,X&Xm.t.#.A A K D J ' l b ( v g k g d c v d X   p <XV.;XW G y.H z ' g o o X ; % % % % % % % % % % ",
"% % % % % % % % % % % % % % % * % - % % O X % % % * * X = . <.bX8XuX8X,Xp.0.0.p.*X7X7X7X7X2X2X2X>X&Xp.7.U A A D P S x b m m ( v g 9 < s s < O # 5 .XM.|.G N k...z | g = o X X % % % % - - % % % % ",
"% X % % % % % % % % % % - & % % % % % % % X * * * * * X o . ' MX8XuX7X&Xp.0.7.0.*XuX7X2XtX7X2X2X}.}.0.#.F A K D P Z C x V g z ' l g d < a & = @ $ V.M.;XY w x.@.z | g = X & X % % - % - % % % % % ",
"% % % % % X % % % % % % % % % % % % % % % X % X % % * X o # S bX8XmX8Xm.0.6.6.7.*X7X2X2X7X2X2X,X&Xm.0.U F K D F A D D x 8 1 g C m g 2 ; ; % % $ $ |.V.;XE w l.t.9 S b o X % X % - % - % % % % % % ",
"% % % % % % % % % % % % % % % % % % X X X * % X * % > X = o g 5XbX8Xn.9.7.7.6.T m.2X7X2X2X2X-X&Xm.i.6.' A K K D D K D V z 8 u b 8 , & & - & & @ $ M.V.|.5.w v.M.7 l | 2 o o % X - % % - % % % X % ",
"% % % % % % % % % % % % % % % % % % O X O X % % % % : % = o 1 }.NX8Xy.F D #.T F 8.,XaX2X1X1X-Xm.p.0.%.F D F K K K D D V D D V u 1 o % & - > & # O l.V.|.5.M v.3XC k o.l = X > X % - - % % % % % % ",
"% % % % X % % % % % % % % % % % % % X X % X * * % % * & = o . i.bXNX8Xp.V A F F 7.-X0X1X:X-XF.B.p.9.%.F K K K K K D A D K K V q @ & ; ; a ; * . O k.;X|.e.B l.iX%.2 o. .o X & % - % % - % % % % % ",
"% % % % % % % X % % % % % % % % % % X X X X % X % % * - & . . <.bX8XbX8Xp.7.p.p.&X1X,X,X,XJ.m.m.i.7.%.U U U U U K D F ' K A 0 + . X & - a - * O . l.<X0Xe.B l.CX1.$ | 2.X & % % % - % % % % % % % ",
"% % % % % % % % % % % % % % % % % & % % % % % % % X % ; % X < g 8XuX8XuXF.p.F.*X&X*X,X,X>X[.m.c.9.&.@.U U U U U A A u V D q # . X % & & - % - o   z.aX0Xe.B w.VX`.5 ' ,.h * % % % % % % % % - % % ",
"% % % % X % % % % % % % % % % % % % % % % % % % % % % & ; ; > , >X*Xp.*XB.p.F.B.&X,X,X>X&X[.c.w.8.#.@.@.@.U U U A D V 7 9 1 1 o % & < < a a ; % # M.aX0Xj.W q.CX$Xe S 3.O.X * * & % % % % % * % % ",
"X % % X % % X % % % % % % % % % % % % % % % % % % % & % = > & . 9.uX6.F 7.7.7.0.r.p.[.&Xm.n.y.0.9.#.#.#.#.@.+.+.U V V ' S 4 1 o X X % & & & % o O l.aX0Xg.R &.nXiXx l *.,.> > * % % % % % % - % % ",
"% % % % % % % % % X % % % % % % % % % % % % % % % % % % % > ; o g 8X&X7.7.p.7.F T 0.m.[.N.p.w.8.#.8.#.#.8.#.#.@.%.A V D z g 1 o = < o & ; ; ; = O d.aX0Xh.T &.iXnX..t O.,.h * % & % % X % % % % % ",
"% % % X % % % % % % % % % % % % % % & % % % % % - % X % & & & = 1 i.8X*X*XB.7.4.7.p.&X=XN.y.w.8.9.#.#.#.9.8.#.#.%.D $.{.%.z 1 <   X & o ; > %     -.aX0XG.5.T rXnX1.t O.>.n = & - % % % % % % * % ",
"% % % % X % % % % % X % % % % % % % % % % % % % & % % - ; % % & o %.5X*X*X7.4.7.0.m.&X&Xm.w.9.9.9.#.#.9.9.9.=.@.D V u.MX<.v 1 1 = = o o o < < > O -.aX0XJ.d.Y 3XVXz.r J 2.( % : * % % % % * % * % ",
"X % % % % % % % % % % % % % % % % % % % % % % % % % & & * > & % 1 1 8X8XF.p.0.7.r.p.m.m.c.q.q.0.9.9.9.t.t.9.#.U D K %.u.' S k < X o o # o 2 d < $ E wX;XH.b.T |.CX].z m 2.o.> : % % % X % * % % % ",
"% % % % % % % X % % % % % % & % % % % % % & % % % & % X % > ; & o # `.NXuX8XF.B.w.y.n.n.c.y.q.9.9.0.y.y.t.#.L D L +.D $.`.<.b o d g C ' ' | ' m $ Y :XH.H.H.R V.nX3Xp m 3.Q.f > & & % % % * * % % ",
"% % % & % % % % % % % % % % % % % % % X % % % % % % % % % % & % ;   ' VX5X8X7Xm.m.p.y.i.t.y.y.9.t.t.y.9.@.L L L  . .P  . .S | *.'.`.`.`.'.W.,.o...I ;X-XJ.J.d.d.CXwXx J | Y.[ % : & % % X % * % % ",
"% % - % % & % % % % % % % % - % % % % % % % % % % % % % % % % % ; , # u.bXnX>X}.i.y.9.y.i.9.1.i.y.9.#.T Y +.%.L P P S  .1.'.+X#X#X$X{.{.{.`.2.$.J N =XH.H.;Xv.E iXrXJ l | Y.O.& : - % % % % % % * ",
"% % % % % - % % & % % % & % % % % % % % % % X % % % % % % - & & X d X    .i.}.}.i.i.<.t.=.=.=.L #.+.+.=.#...+.-.=.x.$XcXMXMXMXMXMX#X].x.u.<.o.| S Z ;XH.H.J.V.E wXCX+.r | ,.3.: > * & % % O X % % ",
"% % % % & % % % % % % % % % % % % % % % % % % % % % % % % % % & % X , # . . D ' %.S l 1 . P `.t.=.9.9.=.=.z.qXnXBXVXVXVXAXBXvX#X1.o.S C x z z l x V 1X-XG.V.;XY |.CXt.$ | o.2.s % % % & % % % X % ",
"% % % % % % % % % % % - % % % % % % % % % % % % % % % % % & % - > % X , ,     . & . @ O   7 ].eX].i.t. XBXZXAXBXAXAXZXBXrX{.*.x l l i V x x m S i w =X:XJ.J.;XE v.CXz.4 ' O.Y.( % % % % % X % X % ",
"% % % % % % % % % % % % % % % % % % % % X % % % % % % % % % % % X : X   X < , & < & =   O    .5X6X3XbXVXZXVXVXZXBXrX].<.D x Z x r z x V x r z x z 5 c.-XJ.J.V.E s.iX Xi l O.Y.;.* % % % X % X X % ",
"% % % % % % % % % % % % % % % % X % % X % % % % % X % % % % % % * X = 3 o X X = % : : % ,   + x.cXVXVXBXVXZXVX9Xk.$.H I Z Z x e t i i i y y z l y 6 q.-XJ.:Xv.e.8.wX3Xm k ,.2.>.: * * % % X X X % ",
"% % % % % % % % % % % % % % % % % % % % % % % X % % % % % % % & * & > X = > : - - - % >   . 9 $XVXCXCXVXZXrXM.1.1...H L I x p x t i p y e i t t 6 6 8.-XJ.:Xf.v.T <XwXI t ,.2.2.a > * % * X X % - ",
"% % % % % % % % % % % % % % % % % % X % % % X % % % % % - % % % % % X X o % % % - - ; ; *   %XZXNXVXVXaX|.v.s.k.a.Y ..J I x p p y i i y 5 7 e t 5 + R <X|.0Xf.;X&.l.iX..t ,.2.Y.n % * X X & o X % ",
"% % % % % X % % % % % % % % % % % % % % % % % % % % % % % % % % % % & * X % % % - a % - * ,.ZXBXZXaX=Xb.b.b.v.v.-.Y J J m x p t i i i 5 7 8 r u 4 # G <X;X0Xb.:Xe.&.qX=.$ o.2.Q.;.* * % = X X ; % ",
"% % % % % % % % % % % % % % % % % % % % % % % % % % % % % % % % % % % & % % % - % - > X O.BXBXZX<XH.b.b.J.J.v.v.d.+.J J I p t 5 y 0 0 q e u z r q # N >X0X0Xb.0Xv.Y |.1.2 X.a.a.Q.v > % * & X % % ",
"% X % % % % % % X % % X X % % % % % X % X % % % % % % % % % & % * % % X & X % - - - > 2 %XZXVXwXb.H.K.J.G.b.g.v.q.Y J H m e 5 $ q 7 q 7 7 u r u 0 + M ;X0X0XV.:Xb.Y `.t.m | O.,.+XO.h % % > X X % ",
"% % % % % % % X % X % % % X % % X % % % % X % % % % % % % % % % % % % % % % * % ; & o x AXVX<Xl.b.K.S.A.C.h.f.e.&.L P ' x 8 7 7 q q 9 8 0 8 0 0 i 6 w |.0X0XV.:X|.Y x.x.| | ,.*.9Xa.n * % - % X X ",
"% % X % % % % % % % % % % % % % % % % % % % % % % % % % % % % % % % % % % % - % % = o =.ZXaXd.g.Z.A.S.C.A.A.j.E T L P S l 7 7 q 4 4 q 8 u 8 8 0 M 6 w N.tXtXJ.:X<XY {.XXJ | %X%XrX'.[ f - - X & % ",
"X % % % % % % % % % % % % % % % % % % X % % % % % % % - % % % % % % % % * - * % &     ].wXd.v.h.A.S.S.C.h.j.d.E @...H S u 8 q q 7 q 7 0 z 0 0 0 y 6 q n.tX0X:X;X;X+.{.+XO.O.9X9XrX%X[ h - - X X X ",
"% % % % % X % % % % % % % % % % % % % % % % % % % % % % & % % % X % % - * % * % X . # t.b.d.j.C.C.C.C.S.A.h.j.d.@...D x g 0 0 q 0 7 9 0 0 z u 0 5 6 + c.wXwX<X;X|.-.`.XXO.O..XrXrX.XO.h - a % X % ",
"% % % % X % % % % X % X % % % % X % % % % % % % % % X % % % % % X % % % % - - % O   e l.v.g.b.j.G.D.G.G.C.h.v.f.1.Y I t t e 5 5 7 7 7 8 8 0 8 7 6 6 + x.aXqXqX;X.X*.'.@X,.O.%XqXqX9Xo.( a a *   X ",
"% % % % % % % % % % % X % % % % % % % % % % % % % % % % % % % X % % % % - % % X   O -.v.v.b.g.K.K.D.C.j.j.j.d.e.-.Y p t t e e y 7 7 7 7 0 0 q 4 6 6 + k.qX<X.X.X.X*.2.lX'.| x.rX9XqXQ.O.a - X % % ",
"X % % X % % % % % % X % % % % % % % % % % % % % % % % % % X X % % X % - % % % X O p x.l.b.V.j.G.B.r.j.f.j.g.b.v.d.a.W e e 5 w 5 e 7 q 7 0 0 7 4 + $ . -..X.X9X9X9Xa.,.lX@X| ,.rXqX9X2.( a a - & % ",
"% % % % % % X % X % % % % % % X X % % % X % % % X % % % % % % % % X & ; - % & X O ..s.v.V.V.g.f.f.f.f.h.h.b.G.b.V.M.Y p p e p 5 7 4 4 7 8 8 q 4 + 4   *.9X.XOXrX9Xx.O.@X@XO.*.9X9XcX'.[ - - - X % ",
"% % X % % % % % % % % % % % % % % % % % % % % X % % % % % % % % % % - % % % %   $ a.d.l.v.d.d.w.f.f.h.D.S.C.D.b.V.V.@.Z p p I Z i y 5 0 0 8 4 4 $ 9 @ <.9X@X@XrXrXa.O.@X@Xo.2.rXcX#X,.c % - - % % ",
"% % % % % X % % X X % X % X % % % % % % % % % % % % % % X % % % X : % % - % X . J k.s.s.d.e.5.s.p.f.b.K.S.S.S.G.D.b.&.N p I L P P V u y 0 7 4 4 # 1 $ ,.9XOXOX9XcXQ.[ 2.:.' o.'.'.o.2   % * % * % ",
"% X % % % % % % % % % % % % % % % % % % % % % % % % X % % % % % X : % % ; X o g =.k.d.a.d.q.q.c.c.g.C.S.C.Z.Z.C.h.h.e.A i Z H H L S V V V 0 q 9 $ # , ,..XOXQ..XzX%X( t   X % 3 X     X = % % * % ",
"% % % % % % % % X % X % % % X % % % % % % X % X % % % % % % % % X - % % a % o D 1.d.q.d.d.q.M.n.b.f.g.C.Z.L.L.Z.g.f.e.U M S D D D Z Z D A z 7 9 $ @ 2 >.Q.Q.!./.OXa.n h O 2 X & & > =   X * - % & "
};
